# xmcd CD database file
#
# Track frame offsets:
#	150
#	22631
#	40671
#	61796
#	83673
#	106887
#	130840
#	151851
#	172492
#	191583
#	213633
#	235914
#	258131
#	280385
#	302958
#	324093
#	343235
#
# Disc length: 4759 seconds
#
# Revision: 4
# Processed by: cddbd v1.5.2PL0 Copyright (c) Steve Scherf et al.
# Submitted via: CDex 1.70beta2
#
DISCID=e4129511
DTITLE=Lorentz, Iny - Die Löwin
DYEAR=2006
DGENRE=Hörbuch
TTITLE0=67 Die Löwin
TTITLE1=68 Die Löwin
TTITLE2=69 Die Löwin
TTITLE3=70 Die Löwin
TTITLE4=71 Die Löwin
TTITLE5=72 Die Löwin
TTITLE6=73 Die Löwin
TTITLE7=74 Die Löwin
TTITLE8=75 Die Löwin
TTITLE9=76 Die Löwin
TTITLE10=77 Die Löwin
TTITLE11=78 Die Löwin
TTITLE12=79 Die Löwin
TTITLE13=80 Die Löwin
TTITLE14=81 Die Löwin
TTITLE15=82 Die Löwin
TTITLE16=83 Die Löwin
EXTD=YEAR: 2006
EXTT0=
EXTT1=
EXTT2=
EXTT3=
EXTT4=
EXTT5=
EXTT6=
EXTT7=
EXTT8=
EXTT9=
EXTT10=
EXTT11=
EXTT12=
EXTT13=
EXTT14=
EXTT15=
EXTT16=
PLAYORDER=
